<svg id="instagram" width="24" height="24" viewBox="0 0 24 24" fill="none" xmlns="http://www.w3.org/2000/svg">
<path d="M11.9995 14.9783C10.3581 14.9783 9.02152 13.6418 9.02152 12.0003C9.02152 10.3576 10.3581 9.02225 11.9995 9.02225C13.641 9.02225 14.9776 10.3576 14.9776 12.0003C14.9776 13.6418 13.641 14.9783 11.9995 14.9783Z" />
<path fill-rule="evenodd" clip-rule="evenodd" d="M3 11.775C3 8.11901 3 6.29102 3.93104 5.00955C4.23173 4.59569 4.59569 4.23173 5.00955 3.93104C6.29102 3 8.11901 3 11.775 3H12.2255C15.8815 3 17.7095 3 18.9909 3.93104C19.4048 4.23173 19.7688 4.59569 20.0694 5.00955C21.0005 6.29102 21.0005 8.11901 21.0005 11.775V12.2255C21.0005 15.8815 21.0005 17.7095 20.0694 18.9909C19.7688 19.4048 19.4048 19.7688 18.9909 20.0694C17.7095 21.0005 15.8815 21.0005 12.2255 21.0005H11.775C8.11901 21.0005 6.29102 21.0005 5.00955 20.0694C4.59569 19.7688 4.23173 19.4048 3.93104 18.9909C3 17.7095 3 15.8815 3 12.2255V11.775ZM11.9995 7.23544C9.36816 7.23544 7.23471 9.36889 7.23471 12.0003C7.23471 14.6317 9.36816 16.7651 11.9995 16.7651C14.6309 16.7651 16.7644 14.6317 16.7644 12.0003C16.7644 9.36889 14.6309 7.23544 11.9995 7.23544ZM17.7565 6.87849C17.7565 7.22914 17.4723 7.5134 17.1216 7.5134C16.771 7.5134 16.4867 7.22914 16.4867 6.87849C16.4867 6.52784 16.771 6.24358 17.1216 6.24358C17.4723 6.24358 17.7565 6.52784 17.7565 6.87849Z" />
</svg>
