<svg id="twitter" viewBox="0 0 24 24" fill="none" xmlns="http://www.w3.org/2000/svg">
<path d="M21.5 5.79446C20.7823 6.09897 20.0122 6.30548 19.2031 6.39768C20.0292 5.92397 20.6617 5.17259 20.9614 4.28001C20.1864 4.7187 19.331 5.03725 18.4195 5.20993C17.6897 4.46438 16.6515 4 15.4999 4C13.2908 4 11.4995 5.71513 11.4995 7.82929C11.4995 8.12914 11.5349 8.42199 11.6031 8.70204C8.27901 8.54217 5.33141 7.01723 3.35863 4.70003C3.01378 5.26476 2.8176 5.92278 2.8176 6.62519C2.8176 7.95414 3.52435 9.12672 4.59666 9.81275C3.94108 9.79176 3.3245 9.61908 2.78472 9.33205V9.37989C2.78472 11.235 4.16409 12.7833 5.99308 13.1357C5.65798 13.222 5.30462 13.2699 4.93906 13.2699C4.68074 13.2699 4.43094 13.2454 4.18601 13.1987C4.69534 14.7213 6.17221 15.8285 7.92202 15.8589C6.55361 16.8857 4.82817 17.4959 2.9541 17.4959C2.6312 17.4959 2.31315 17.4772 2 17.4434C3.77052 18.532 5.87248 19.1667 8.13161 19.1667C15.4903 19.1667 19.5126 13.3305 19.5126 8.26917L19.4992 7.77331C20.2851 7.23656 20.9651 6.56219 21.5 5.79446Z" />
</svg>
