<svg width="360" height="73" viewBox="0 0 360 73" fill="none" xmlns="http://www.w3.org/2000/svg">
<g clip-path="url(#clip0_338_333)">
<path d="M66.2284 0H121.164V12.3532H100.946V49.5652H86.4468V12.3532H66.2284V0Z" fill="#BF9943"/>
<path d="M127.272 0H182.208V12.3532H161.989V49.5652H147.49V12.3532H127.272V0Z" fill="#BF9943"/>
<path d="M222.358 0H251.356C254.913 0 257.966 1.27156 260.511 3.81467C263.056 6.35778 264.328 9.40315 264.328 12.9635V18.2977H249.829V16.0089C249.829 15.1442 249.537 14.4194 248.951 13.8345C248.366 13.2496 247.641 12.9572 246.776 12.9572H226.939C226.074 12.9572 225.348 13.2496 224.763 13.8345C224.178 14.4194 223.885 15.1442 223.885 16.0089V33.5436C223.885 34.4083 224.178 35.1331 224.763 35.718C225.348 36.3029 226.074 36.5954 226.939 36.5954H246.776C247.641 36.5954 248.366 36.3029 248.951 35.718C249.537 35.1331 249.829 34.4083 249.829 33.5436V31.2548H264.328V36.589C264.328 40.1494 263.056 43.1947 260.511 45.7379C257.966 48.281 254.913 49.5525 251.356 49.5525H222.358C218.795 49.5525 215.748 48.281 213.203 45.7379C210.658 43.1947 209.386 40.1494 209.386 36.589V12.9635C209.386 9.40315 210.658 6.35778 213.203 3.81467C215.748 1.27156 218.802 0 222.358 0Z" fill="#BF9943"/>
<path d="M42.3455 0H27.8465L0 49.5589H15.7205L20.3711 40.8742L26.0969 30.1931L35.0991 13.4976L44.1014 30.1931H35.0991L29.9905 40.8742H49.8272L54.4778 49.5589H70.1983L42.3455 0Z" fill="#C49C48"/>
<path d="M194.334 0H188.309V5.44862H194.334V0Z" fill="#EF3E2D"/>
<path d="M196.777 0V7.89636H188.309V49.5589H202.801V0H196.777Z" fill="#BF9943"/>
<path d="M42.3455 0H27.8465L0 49.5589H15.7205L20.3711 40.8742L26.0969 30.1931L35.0991 13.4976L44.1014 30.1931H35.0991L29.9905 40.8742H49.8272L54.4778 49.5589H70.1983L42.3455 0Z" fill="#BF9943"/>
<path d="M310.535 0H296.037L268.184 49.5589H283.904L288.555 40.8742L294.281 30.1931L303.283 13.4976L312.285 30.1931H303.283L298.174 40.8742H318.011L322.661 49.5589H338.382L310.535 0Z" fill="#BF9943"/>
<path d="M6.9473 73H4.33888V61.7149H0V59.1082H11.2925V61.7149H6.95366V73H6.9473Z" fill="white"/>
<path d="M28.6226 73H25.3589L22.3179 67.7866H19.9385V73H17.3301V59.1146H23.4058C24.2583 59.1146 24.9836 59.2799 25.588 59.6042C26.1923 59.9284 26.6695 60.3607 27.0321 60.8884C27.5411 61.6514 27.7892 62.5097 27.7892 63.457C27.7892 64.4869 27.4902 65.4025 26.8922 66.1972C26.5041 66.7122 25.9951 67.1063 25.3653 67.3988L28.6226 73ZM23.4249 65.1863C23.8766 65.1736 24.2456 65.0528 24.5191 64.8239C24.9199 64.4869 25.1235 64.0292 25.1235 63.4506C25.1235 62.8721 24.9199 62.427 24.5128 62.071C24.2392 61.8357 23.8702 61.715 23.4058 61.715H19.9385V65.1799H23.4249V65.1863Z" fill="white"/>
<path d="M40.0551 73C39.349 73 38.6555 72.8919 37.9875 72.6694C37.3195 72.4532 36.7151 72.1226 36.1743 71.6839C35.6336 71.2453 35.2073 70.6985 34.8892 70.0373C34.5711 69.3824 34.412 68.6131 34.412 67.7358V59.0638H37.0205V67.7358C37.0205 68.3143 37.1668 68.7975 37.4658 69.1853C37.7648 69.5732 38.1402 69.8593 38.6046 70.05C39.069 70.2407 39.5525 70.3424 40.0615 70.3424C40.5705 70.3424 41.054 70.2471 41.5184 70.05C41.9828 69.8593 42.3582 69.5668 42.6572 69.1853C42.9562 68.7975 43.1025 68.3143 43.1025 67.7358V59.2545L43.7578 59.1591C44.1904 59.0955 44.8394 59.0638 45.711 59.0638V67.7358C45.711 68.6131 45.5519 69.3761 45.2338 70.0309C44.6103 71.3152 43.5797 72.1926 42.1355 72.663C41.4611 72.8792 40.774 72.9936 40.0615 72.9936L40.0551 73Z" fill="white"/>
<path d="M58.8167 73C57.6652 73 56.66 72.8029 55.8011 72.4087C54.9422 72.0145 54.2233 71.4868 53.6444 70.832C53.0718 70.1708 52.6392 69.4269 52.3465 68.6004C52.0602 67.7739 51.9139 66.922 51.9139 66.0573C51.9139 65.1926 52.0602 64.3407 52.3465 63.5142C52.6328 62.6877 53.0654 61.9438 53.6444 61.2826C54.217 60.6214 54.9359 60.0937 55.8011 59.6995C56.66 59.3053 57.6652 59.1082 58.8167 59.1082C59.7646 59.1082 60.7571 59.3244 61.7877 59.7631L62.2967 59.9793V62.586L61.7877 62.3698C60.7571 61.9311 59.771 61.7149 58.8167 61.7149C58.0023 61.7149 57.2962 61.8739 56.7172 62.1918C56.1319 62.5097 55.6675 62.9229 55.3176 63.4315C54.7895 64.2072 54.5223 65.0846 54.5223 66.0509C54.5223 67.0173 54.7895 67.8947 55.3176 68.664C55.6675 69.179 56.1383 69.5986 56.7172 69.9165C57.3025 70.2344 58.0023 70.3933 58.8167 70.3933C59.7773 70.3933 60.7698 70.1771 61.7877 69.7448L62.2967 69.5286V72.1226L61.7877 72.3388C60.7825 72.7775 59.7901 72.9936 58.8167 72.9936V73Z" fill="white"/>
<path d="M81.3318 73H78.0617L73.3157 66.7312L71.2671 69.0328V73H68.6587V59.3117L69.3076 59.2163C69.7466 59.1528 70.3955 59.121 71.2671 59.121V65.11L76.573 59.121H80.0403L75.0652 64.7349L81.3254 73H81.3318Z" fill="white"/>
<path d="M103.828 72.1353C102.759 72.7075 101.69 73 100.628 73C99.7307 73 98.9482 72.8665 98.2738 72.6058C97.6058 72.3451 97.0523 71.9955 96.6133 71.5631C96.1743 71.1308 95.8562 70.6476 95.6526 70.1072C95.4681 69.6367 95.3791 69.1535 95.3791 68.664C95.3791 68.0282 95.5254 67.4115 95.8181 66.8266C96.0789 66.3116 96.4543 65.8538 96.9505 65.4533C96.3397 64.7476 96.0344 63.9338 96.0344 63.0119C96.0344 62.1536 96.3016 61.3843 96.8487 60.6913C97.2241 60.2209 97.7267 59.8394 98.3565 59.5469C98.9863 59.2545 99.7434 59.1082 100.634 59.1082C101.525 59.1082 102.288 59.2545 102.912 59.5469C103.542 59.8394 104.038 60.2209 104.413 60.6913C104.96 61.3843 105.234 62.1536 105.234 63.0119C105.234 65.6186 103.701 66.922 100.634 66.922C99.947 66.922 99.3999 67.0428 98.9863 67.278C98.3756 67.6277 98.0702 68.0918 98.0702 68.6576C98.0702 69.2235 98.3756 69.6876 98.9863 70.0373C99.3999 70.2725 99.947 70.3933 100.634 70.3933C101.251 70.3933 101.868 70.2534 102.479 69.9737L102.046 69.2743L104.254 67.9011L106.513 71.525L104.305 72.8983L103.828 72.1417V72.1353ZM100.628 64.3216C101.168 64.3216 101.601 64.2326 101.926 64.0546C102.409 63.7812 102.651 63.4379 102.651 63.0183C102.651 62.5987 102.409 62.2553 101.926 61.982C101.601 61.8039 101.168 61.7149 100.628 61.7149C100.119 61.7149 99.7116 61.8039 99.3999 61.982C98.9418 62.2553 98.7064 62.5987 98.7064 63.0183C98.7064 63.4379 98.9354 63.7812 99.3999 64.0546C99.7116 64.2326 100.119 64.3216 100.628 64.3216Z" fill="white"/>
<path d="M123.321 73C121.769 73 120.439 72.4024 119.345 71.2135V69.5223L119.854 69.7385C120.865 70.1772 121.851 70.3933 122.812 70.3933C123.773 70.3933 124.422 70.1899 124.861 69.783C125.179 69.4905 125.357 69.1726 125.395 68.8357C125.414 68.7212 125.42 65.5423 125.42 59.3054L126.076 59.21C126.508 59.1464 127.157 59.1146 128.029 59.1146V68.664C128.029 70.2725 127.488 71.4296 126.4 72.129C125.56 72.6758 124.536 72.9682 123.327 73H123.321Z" fill="white"/>
<path d="M144.201 73H134.645V59.121H144.201V61.7277H137.254V65.1927H143.329V67.7993H137.254V70.3933H144.201V73Z" fill="white"/>
<path d="M160.119 73H150.563V59.121H160.119V61.7277H153.171V65.1927H159.247V67.7993H153.171V70.3933H160.119V73Z" fill="white"/>
<path d="M169.089 73H166.481V59.5088L167.066 59.4134C168.192 59.2163 169.738 59.121 171.691 59.121C172.658 59.121 173.485 59.2926 174.172 59.6423C174.86 59.992 175.413 60.4497 175.827 61.0156C176.444 61.8675 176.749 62.8212 176.749 63.8893C176.749 64.9574 176.444 65.9238 175.827 66.7694C175.413 67.3352 174.86 67.7866 174.172 68.1363C173.485 68.486 172.658 68.6576 171.691 68.6576C170.673 68.6576 169.802 68.6322 169.083 68.5813V73H169.089ZM171.698 66.0637C172.245 66.0637 172.703 65.9556 173.065 65.7458C173.428 65.536 173.702 65.2626 173.886 64.932C174.064 64.6014 174.16 64.2517 174.16 63.8893C174.16 63.5269 174.071 63.1772 173.886 62.8466C173.708 62.516 173.434 62.249 173.065 62.0328C172.703 61.823 172.245 61.7213 171.698 61.7213C170.68 61.7213 169.808 61.7467 169.089 61.7976V65.9747C169.808 66.0319 170.68 66.0637 171.698 66.0637Z" fill="white"/>
<path d="M203.826 73H201.026L199.741 69.535H194.881L193.596 73H190.796L196.013 59.1146H198.609L203.826 73ZM198.787 66.9283L197.311 62.9356L195.841 66.9283H198.787Z" fill="white"/>
<path d="M215.793 73C214.641 73 213.636 72.8029 212.777 72.4087C211.918 72.0145 211.199 71.4868 210.627 70.832C210.054 70.1708 209.621 69.4269 209.329 68.6004C209.036 67.7739 208.896 66.922 208.896 66.0573C208.896 65.1926 209.043 64.3407 209.329 63.5142C209.615 62.6877 210.048 61.9438 210.627 61.2826C211.206 60.6214 211.918 60.0937 212.777 59.6995C213.636 59.3053 214.641 59.1082 215.793 59.1082C216.741 59.1082 217.733 59.3244 218.764 59.7631L219.273 59.9793V62.586L218.764 62.3698C217.733 61.9311 216.747 61.7149 215.793 61.7149C214.978 61.7149 214.272 61.8739 213.693 62.1918C213.108 62.5097 212.643 62.9229 212.293 63.4315C211.765 64.2072 211.498 65.0846 211.498 66.0509C211.498 67.0173 211.765 67.8947 212.293 68.664C212.643 69.179 213.114 69.5986 213.693 69.9165C214.278 70.2344 214.978 70.3933 215.793 70.3933C216.753 70.3933 217.746 70.1771 218.764 69.7448L219.273 69.5286V72.1226L218.764 72.3388C217.758 72.7775 216.766 72.9936 215.793 72.9936V73Z" fill="white"/>
<path d="M231.888 73C230.737 73 229.732 72.8029 228.873 72.4087C228.014 72.0145 227.295 71.4868 226.723 70.832C226.15 70.1708 225.717 69.4269 225.425 68.6004C225.132 67.7739 224.992 66.922 224.992 66.0573C224.992 65.1926 225.138 64.3407 225.425 63.5142C225.711 62.6877 226.144 61.9438 226.723 61.2826C227.301 60.6214 228.014 60.0937 228.873 59.6995C229.732 59.3053 230.737 59.1082 231.888 59.1082C232.836 59.1082 233.829 59.3244 234.86 59.7631L235.368 59.9793V62.586L234.86 62.3698C233.829 61.9311 232.843 61.7149 231.888 61.7149C231.074 61.7149 230.368 61.8739 229.789 62.1918C229.204 62.5097 228.739 62.9229 228.389 63.4315C227.861 64.2072 227.594 65.0846 227.594 66.0509C227.594 67.0173 227.861 67.8947 228.389 68.664C228.739 69.179 229.21 69.5986 229.789 69.9165C230.374 70.2344 231.074 70.3933 231.888 70.3933C232.849 70.3933 233.842 70.1771 234.86 69.7448L235.368 69.5286V72.1226L234.86 72.3388C233.854 72.7775 232.862 72.9936 231.888 72.9936V73Z" fill="white"/>
<path d="M251.293 73H241.737V59.121H251.293V61.7277H244.345V65.1927H250.421V67.7993H244.345V70.3933H251.293V73Z" fill="white"/>
<path d="M261.675 73C260.804 73 260.091 72.9555 259.525 72.8665C258.959 72.7775 258.52 72.6758 258.202 72.5613C257.884 72.4469 257.661 72.3451 257.534 72.2561L257.336 72.129V69.535L257.534 69.6622C257.661 69.7512 257.884 69.8465 258.202 69.961C258.52 70.0754 258.965 70.1771 259.525 70.2598C260.085 70.3425 260.804 70.387 261.675 70.387C262.381 70.387 262.948 70.2662 263.368 70.0309C264.004 69.6749 264.316 69.2171 264.316 68.6513C264.316 68.0854 263.997 67.6277 263.368 67.2716C262.948 67.0364 262.381 66.9029 261.675 66.8647C260.855 66.763 260.155 66.5469 259.576 66.2226C258.997 65.8984 258.545 65.4978 258.214 65.0273C257.775 64.4043 257.559 63.7304 257.559 63.0119C257.559 62.0773 257.909 61.2445 258.602 60.526C259.016 60.1001 259.557 59.7568 260.218 59.4961C260.88 59.2354 261.669 59.1019 262.579 59.1019C263.578 59.1019 264.608 59.3371 265.671 59.8013V62.4079C264.615 61.9438 263.584 61.7086 262.579 61.7086C261.936 61.7086 261.421 61.7976 261.033 61.9756C260.454 62.249 260.161 62.5923 260.161 63.0119C260.161 63.4315 260.454 63.7749 261.033 64.0482C261.421 64.2263 261.936 64.3343 262.579 64.3661C263.45 64.4742 264.188 64.7095 264.793 65.0719C265.397 65.4342 265.881 65.8729 266.231 66.3879C266.689 67.0809 266.924 67.8375 266.924 68.6576C266.924 69.7003 266.568 70.6158 265.842 71.4106C265.403 71.8874 264.837 72.2689 264.144 72.5613C263.45 72.8538 262.623 73 261.669 73H261.675Z" fill="white"/>
<path d="M277.294 73C276.422 73 275.71 72.9555 275.144 72.8665C274.577 72.7775 274.138 72.6758 273.82 72.5613C273.502 72.4469 273.28 72.3451 273.152 72.2561L272.955 72.129V69.535L273.152 69.6622C273.28 69.7512 273.502 69.8465 273.82 69.961C274.138 70.0754 274.584 70.1771 275.144 70.2598C275.704 70.3425 276.422 70.387 277.294 70.387C278 70.387 278.566 70.2662 278.986 70.0309C279.623 69.6749 279.934 69.2171 279.934 68.6513C279.934 68.0854 279.616 67.6277 278.986 67.2716C278.566 67.0364 278 66.9029 277.294 66.8647C276.473 66.763 275.773 66.5469 275.195 66.2226C274.616 65.8984 274.164 65.4978 273.833 65.0273C273.394 64.4043 273.178 63.7304 273.178 63.0119C273.178 62.0773 273.528 61.2445 274.221 60.526C274.635 60.1001 275.175 59.7568 275.837 59.4961C276.499 59.2354 277.288 59.1019 278.197 59.1019C279.196 59.1019 280.227 59.3371 281.289 59.8013V62.4079C280.233 61.9438 279.203 61.7086 278.197 61.7086C277.555 61.7086 277.04 61.7976 276.651 61.9756C276.073 62.249 275.78 62.5923 275.78 63.0119C275.78 63.4315 276.073 63.7749 276.651 64.0482C277.04 64.2263 277.555 64.3343 278.197 64.3661C279.069 64.4742 279.807 64.7095 280.411 65.0719C281.016 65.4342 281.499 65.8729 281.849 66.3879C282.307 67.0809 282.543 67.8375 282.543 68.6576C282.543 69.7003 282.186 70.6158 281.461 71.4106C281.022 71.8874 280.456 72.2689 279.762 72.5613C279.069 72.8538 278.242 73 277.288 73H277.294Z" fill="white"/>
<path d="M294.828 73C293.772 73 292.843 72.8029 292.054 72.4151C291.265 72.0209 290.603 71.4996 290.075 70.8384C289.547 70.1771 289.153 69.4333 288.892 68.6068C288.625 67.7803 288.497 66.9347 288.497 66.0637C288.497 65.1927 288.631 64.3471 288.892 63.5206C289.153 62.694 289.554 61.9502 290.075 61.289C290.603 60.6278 291.259 60.1064 292.054 59.7122C292.843 59.3181 293.772 59.121 294.828 59.121C295.884 59.121 296.8 59.3181 297.595 59.7122C298.384 60.1064 299.046 60.6341 299.574 61.289C300.102 61.9438 300.496 62.6877 300.757 63.5206C301.018 64.3471 301.152 65.199 301.152 66.0637C301.152 66.9283 301.018 67.7803 300.757 68.6068C300.496 69.4333 300.102 70.1771 299.574 70.8384C299.046 71.4996 298.384 72.0273 297.595 72.4151C296.806 72.8093 295.884 73 294.828 73ZM294.828 70.406C295.54 70.406 296.151 70.2471 296.666 69.9292C297.182 69.6113 297.589 69.1981 297.894 68.6894C298.352 67.9074 298.588 67.03 298.588 66.07C298.588 65.11 298.359 64.2326 297.894 63.457C297.589 62.942 297.182 62.5224 296.666 62.2045C296.151 61.8866 295.54 61.7277 294.828 61.7277C294.115 61.7277 293.536 61.8866 293.04 62.2045C292.544 62.5224 292.143 62.9356 291.844 63.457C291.399 64.2199 291.182 65.0909 291.182 66.07C291.182 67.0491 291.405 67.9201 291.844 68.6894C292.143 69.2044 292.544 69.6177 293.04 69.9292C293.536 70.2471 294.134 70.406 294.828 70.406Z" fill="white"/>
<path d="M318.774 73H315.511L312.47 67.7866H310.09V73H307.482V59.1146H313.557C314.41 59.1146 315.135 59.2799 315.74 59.6042C316.344 59.9284 316.821 60.3607 317.184 60.8884C317.693 61.6514 317.941 62.5097 317.941 63.457C317.941 64.4869 317.642 65.4025 317.044 66.1972C316.656 66.7122 316.147 67.1063 315.517 67.3988L318.774 73ZM313.577 65.1863C314.028 65.1736 314.397 65.0528 314.671 64.8239C315.072 64.4869 315.275 64.0292 315.275 63.4506C315.275 62.8721 315.072 62.427 314.664 62.071C314.391 61.8357 314.022 61.715 313.557 61.715H310.09V65.1799H313.577V65.1863Z" fill="white"/>
<path d="M327.427 73H324.818V59.299L325.467 59.2036C325.906 59.14 326.555 59.1082 327.427 59.1082V72.9936V73Z" fill="white"/>
<path d="M343.631 73H334.075V59.121H343.631V61.7277H336.683V65.1927H342.759V67.7993H336.683V70.3933H343.631V73Z" fill="white"/>
<path d="M354.02 73C353.148 73 352.436 72.9555 351.869 72.8665C351.303 72.7775 350.864 72.6758 350.546 72.5613C350.228 72.4469 350.005 72.3451 349.878 72.2561L349.681 72.129V69.535L349.878 69.6622C350.005 69.7512 350.228 69.8465 350.546 69.961C350.864 70.0754 351.31 70.1771 351.869 70.2598C352.429 70.3425 353.148 70.387 354.02 70.387C354.726 70.387 355.292 70.2662 355.712 70.0309C356.348 69.6749 356.66 69.2171 356.66 68.6513C356.66 68.0854 356.342 67.6277 355.712 67.2716C355.292 67.0364 354.726 66.9029 354.02 66.8647C353.199 66.763 352.499 66.5469 351.92 66.2226C351.341 65.8984 350.89 65.4978 350.559 65.0273C350.12 64.4043 349.904 63.7304 349.904 63.0119C349.904 62.0773 350.253 61.2445 350.947 60.526C351.36 60.1001 351.901 59.7568 352.563 59.4961C353.224 59.2354 354.013 59.1019 354.923 59.1019C355.922 59.1019 356.953 59.3371 358.015 59.8013V62.4079C356.959 61.9438 355.928 61.7086 354.923 61.7086C354.281 61.7086 353.765 61.7976 353.377 61.9756C352.798 62.249 352.506 62.5923 352.506 63.0119C352.506 63.4315 352.798 63.7749 353.377 64.0482C353.765 64.2263 354.281 64.3343 354.923 64.3661C355.795 64.4742 356.533 64.7095 357.137 65.0719C357.741 65.4342 358.225 65.8729 358.575 66.3879C359.033 67.0809 359.268 67.8375 359.268 68.6576C359.268 69.7003 358.912 70.6158 358.187 71.4106C357.748 71.8874 357.182 72.2689 356.488 72.5613C355.795 72.8538 354.968 73 354.013 73H354.02Z" fill="white"/>
<path d="M355.451 0V4.45044H346.563V0H342.568V8.8246H355.451V13.2941H359.421V0H355.451Z" fill="white"/>
<path d="M360 18.1324H355.445L352.397 22.5828H349.554L346.551 18.1324H341.996L346.214 24.7826L341.996 31.4265H346.551L349.554 26.957H352.397L355.438 31.4265H360L355.757 24.7826L360 18.1324Z" fill="white"/>
<path d="M355.451 36.2711V40.7152H346.557V36.2711H342.568V45.0894H355.451V49.5589H359.421V36.2711H355.451Z" fill="white"/>
</g>
<defs>
<clipPath id="clip0_338_333">
<rect width="360" height="73" fill="white"/>
</clipPath>
</defs>
</svg>
