<?xml version="1.0" standalone="no"?>
<!DOCTYPE svg PUBLIC "-//W3C//DTD SVG 20010904//EN"
 "http://www.w3.org/TR/2001/REC-SVG-20010904/DTD/svg10.dtd">
<svg version="1.0" xmlns="http://www.w3.org/2000/svg"
 width="400.000000pt" height="400.000000pt" viewBox="0 0 400.000000 400.000000"
 preserveAspectRatio="xMidYMid meet">
<metadata>
Created by potrace 1.14, written by Peter Selinger 2001-2017
</metadata>
<g transform="translate(0.000000,400.000000) scale(0.100000,-0.100000)"
fill="#000000" stroke="none">
<path d="M275 2348 c-156 -274 -272 -483 -270 -486 2 -3 89 -5 141 -3 30 1 35
8 129 184 53 100 103 188 109 194 9 10 22 -7 58 -75 l46 -89 -36 0 c-20 0 -44
-1 -52 -2 -12 -1 -60 -91 -60 -112 0 -3 45 -5 101 -5 55 1 104 -1 108 -4 4 -3
19 -25 33 -49 l26 -44 82 0 c45 1 83 3 85 4 2 2 -34 69 -79 149 -45 80 -100
177 -121 215 -21 39 -47 86 -59 105 -12 20 -26 45 -32 55 -9 17 -24 20 -92 23
l-81 3 -36 -63z"/>
<path d="M737 2403 c-3 -7 -2 -94 2 -123 0 -6 45 -10 111 -10 l110 0 0 -205 0
-205 28 -1 c63 -2 125 0 130 5 3 3 5 96 5 206 l1 200 113 0 114 0 -2 70 -2 70
-303 0 c-166 0 -305 -3 -307 -7z"/>
<path d="M1413 2340 l0 -70 112 0 113 0 -1 -205 c-1 -131 2 -205 8 -206 17 -1
119 -1 138 0 16 1 17 18 17 206 l0 205 109 0 c78 0 110 4 113 13 4 10 3 95 -1
120 0 4 -137 7 -304 7 l-303 0 -1 -70z"/>
<path d="M2090 2381 c0 -22 5 -30 23 -33 35 -7 47 1 47 33 0 27 -3 29 -35 29
-32 0 -35 -3 -35 -29z"/>
<path d="M2189 2398 c-1 -7 -2 -26 -3 -43 -1 -29 -3 -30 -49 -30 l-47 0 0
-232 0 -233 23 -1 c49 -2 128 1 135 5 5 3 8 499 3 539 -2 12 -61 8 -62 -5z"/>
<path d="M2400 2388 c-71 -49 -74 -59 -74 -251 -1 -155 1 -176 19 -207 37 -64
71 -72 290 -73 172 0 197 2 226 19 48 29 68 63 75 127 l6 58 -83 -3 c-72 -3
-82 -5 -85 -22 -1 -10 -8 -22 -14 -26 -14 -9 -204 -12 -242 -4 l-28 6 0 119
c0 143 -8 136 158 134 114 -2 137 -9 126 -40 -7 -17 10 -21 91 -20 l70 0 3 41
c3 54 -32 121 -78 145 -30 17 -59 19 -231 19 -187 0 -198 -1 -229 -22z"/>
<path d="M3277 2388 c-8 -13 -47 -81 -87 -153 -40 -71 -101 -180 -136 -242
-35 -61 -65 -117 -66 -123 -2 -8 23 -12 80 -12 97 -1 78 -21 187 187 72 136
115 209 119 203 11 -14 86 -160 86 -168 0 -6 -17 -8 -39 -6 -21 2 -43 1 -48
-3 -14 -10 -55 -102 -48 -110 4 -3 46 -7 93 -7 48 -1 94 -2 103 -3 8 0 25 -21
37 -46 23 -48 19 -47 127 -47 84 0 91 -25 -75 267 -27 47 -55 97 -100 180 -61
112 -53 105 -141 105 -71 0 -80 -2 -92 -22z"/>
<path d="M3809 2403 c-1 -5 -2 -27 -3 -50 l-2 -43 73 0 c71 0 73 -1 73 -25 0
-18 5 -25 20 -25 22 0 22 0 22 70 0 77 -1 80 -22 80 -15 0 -20 -7 -20 -25 0
-23 -3 -25 -50 -25 -47 0 -50 2 -50 25 0 18 -5 25 -20 25 -11 0 -21 -3 -21 -7z"/>
<path d="M3822 2171 l22 -38 -22 -37 -21 -36 24 0 c13 0 32 11 43 25 11 14 26
25 34 25 8 0 21 -11 28 -25 9 -18 22 -25 42 -25 31 0 30 8 -5 55 -13 17 -12
23 9 55 l24 35 -22 3 c-15 3 -30 -5 -45 -22 -28 -33 -46 -33 -67 -1 -10 16
-26 25 -42 25 l-25 0 23 -39z"/>
<path d="M3815 2002 c-6 -4 -10 -26 -11 -49 0 -48 -5 -45 109 -45 34 0 37 -2
37 -27 0 -24 4 -28 23 -24 20 4 22 10 21 73 0 38 -3 72 -7 76 -12 12 -37 -5
-37 -26 0 -22 -1 -22 -45 -22 -51 -1 -55 1 -55 27 0 24 -15 32 -35 17z"/>
<path d="M1970 1771 c0 -26 21 -43 37 -30 23 19 16 47 -12 47 -17 0 -25 -6
-25 -17z m32 0 c8 12 9 12 6 0 -6 -22 -28 -25 -27 -4 0 12 2 14 6 4 5 -11 7
-11 15 0z"/>
<path d="M2692 1746 c-10 -17 -8 -136 2 -144 10 -6 36 -7 84 -3 6 0 12 8 12
16 0 11 -11 15 -40 15 -28 0 -38 4 -34 13 2 7 17 13 32 13 17 -1 28 5 30 15 2
12 -5 15 -29 15 -23 -1 -33 4 -35 17 -2 16 15 22 57 18 9 -1 19 5 22 13 4 11
-6 15 -45 18 -27 1 -53 -1 -56 -6z"/>
<path d="M0 1735 c0 -9 9 -15 25 -15 24 0 25 -3 25 -59 0 -43 4 -60 15 -65 12
-4 15 6 15 59 0 58 2 64 22 67 12 2 23 9 26 16 3 9 -14 12 -62 12 -52 0 -66
-3 -66 -15z"/>
<path d="M192 1676 c1 -53 5 -77 14 -80 8 -3 14 0 15 7 1 7 2 20 3 29 0 10 4
18 9 18 4 0 12 0 17 0 6 0 10 -6 10 -14 0 -17 39 -48 52 -40 4 3 0 16 -9 31
-13 20 -14 29 -5 44 30 48 7 79 -60 79 l-47 0 1 -74z m88 37 c0 -15 -15 -29
-27 -27 -7 1 -17 2 -23 3 -5 0 -10 8 -10 16 0 10 10 15 30 15 17 0 30 -3 30
-7z"/>
<path d="M382 1689 c2 -50 6 -64 25 -79 25 -20 57 -17 86 8 25 22 25 135 0
130 -13 -2 -17 -15 -17 -58 -1 -54 -1 -55 -31 -55 -30 0 -30 1 -33 58 -2 41
-7 57 -17 57 -11 0 -14 -14 -13 -61z"/>
<path d="M607 1738 c-49 -38 -34 -120 25 -136 40 -11 58 -5 58 17 0 12 -9 16
-31 16 -38 0 -54 22 -45 59 6 25 11 28 41 24 29 -3 35 -1 35 14 0 14 -8 18
-33 18 -18 0 -41 -6 -50 -12z"/>
<path d="M761 1676 c1 -54 5 -76 15 -80 10 -4 14 2 14 18 0 13 6 29 14 35 11
10 19 5 41 -23 16 -21 32 -33 41 -29 11 4 7 15 -18 49 l-31 44 21 23 c26 28
28 37 6 37 -9 0 -30 -15 -46 -32 l-29 -33 3 30 c2 22 -2 31 -14 33 -16 3 -18
-6 -17 -72z"/>
<path d="M1082 1738 c-16 -22 -25 -108 -11 -124 13 -16 94 -20 103 -5 9 14 -4
41 -20 41 -8 0 -14 -4 -14 -10 0 -5 -11 -10 -25 -10 -38 0 -31 27 10 34 62 12
58 86 -5 86 -15 0 -32 -6 -38 -12z m56 -30 c-3 -7 -11 -13 -18 -13 -7 0 -15 6
-17 13 -3 7 4 12 17 12 13 0 20 -5 18 -12z"/>
<path d="M1391 1738 c1 -7 1 -34 0 -60 l-1 -48 -37 0 -38 -1 23 -19 c19 -15
28 -17 52 -8 17 5 30 16 31 24 8 98 4 124 -18 124 -7 0 -13 -6 -12 -12z"/>
<path d="M1499 1748 c-7 -16 -3 -141 5 -145 5 -4 27 -7 49 -7 28 -1 41 4 49
17 9 18 6 19 -31 15 -33 -3 -41 0 -41 13 0 12 7 16 30 13 24 -3 30 0 30 15 0
14 -7 18 -29 16 -18 -1 -32 3 -35 11 -7 17 10 27 45 26 15 0 30 6 33 14 4 11
-6 14 -49 14 -30 0 -55 -1 -56 -2z"/>
<path d="M1671 1675 c-1 -45 3 -75 9 -76 5 -1 21 -1 35 -1 55 0 65 3 65 17 0
11 -11 15 -40 15 -22 0 -40 5 -40 10 0 10 14 13 53 13 10 0 17 7 17 17 0 13
-7 17 -30 15 -17 -1 -33 2 -36 7 -11 17 15 35 46 30 23 -3 30 0 30 12 0 13
-11 16 -54 16 l-54 0 -1 -75z"/>
<path d="M1850 1671 c0 -67 2 -79 15 -75 8 4 15 17 15 31 0 14 5 23 13 21 25
-5 65 12 70 31 2 11 -1 30 -7 43 -9 18 -21 24 -59 26 l-47 3 0 -80z m80 30 c0
-20 -25 -35 -41 -25 -5 3 -9 14 -9 25 0 14 7 19 25 19 18 0 25 -5 25 -19z"/>
<path d="M2148 1676 c-20 -57 -24 -76 -13 -79 7 -3 17 5 23 17 13 29 45 27 74
-4 28 -30 36 -11 15 38 -8 21 -21 52 -27 70 -20 53 -42 41 -72 -42z m52 2 c0
-16 -3 -19 -11 -11 -6 6 -8 16 -5 22 11 17 16 13 16 -11z"/>
<path d="M2341 1724 c-48 -61 -6 -133 70 -122 38 5 35 28 -4 28 -45 0 -64 22
-51 58 8 23 16 27 47 27 51 0 47 29 -4 33 -30 3 -41 -2 -58 -24z"/>
<path d="M2521 1724 c-12 -15 -21 -39 -21 -55 0 -48 64 -89 104 -67 26 15 18
28 -17 28 -38 0 -57 15 -57 46 0 28 23 46 52 43 13 -2 24 0 26 4 7 20 -1 27
-32 27 -25 0 -40 -7 -55 -26z"/>
<path d="M2870 1735 c-19 -23 -7 -49 33 -68 44 -21 40 -37 -9 -37 -44 0 -47
-26 -3 -32 22 -4 39 1 56 16 21 18 23 25 14 47 -6 18 -19 28 -41 32 -38 8 -31
27 10 27 22 0 28 4 24 15 -8 19 -68 20 -84 0z"/>
<path d="M3054 1743 c-33 -24 -19 -68 26 -78 46 -10 39 -35 -10 -35 -44 0 -53
-16 -18 -29 35 -13 72 2 83 33 8 24 6 31 -13 47 -13 10 -30 15 -37 12 -9 -3
-15 1 -15 10 0 10 11 17 28 19 15 2 27 8 27 13 0 12 -56 18 -71 8z"/>
<path d="M3222 1723 c-24 -35 -19 -81 12 -109 67 -60 151 50 90 117 -27 29
-79 25 -102 -8z m89 -25 c7 -13 11 -25 10 -28 -2 -3 -7 -13 -13 -23 -6 -12
-18 -17 -36 -15 -23 2 -28 9 -30 37 -5 52 46 73 69 29z"/>
<path d="M3415 1683 c0 -38 4 -74 8 -81 10 -14 28 -6 26 11 -6 50 19 57 39 11
7 -14 20 -24 32 -24 20 0 20 1 4 31 -11 23 -13 34 -5 42 15 15 14 50 -1 65 -7
7 -33 12 -58 12 l-46 0 1 -67z m85 22 c0 -8 -4 -16 -10 -16 -5 -1 -16 -2 -22
-3 -15 -2 -29 15 -22 26 9 15 54 9 54 -7z"/>
<path d="M3610 1670 c0 -67 2 -78 15 -74 21 8 20 154 -1 154 -11 0 -14 -19
-14 -80z"/>
<path d="M3710 1673 l0 -78 47 2 c27 1 51 2 56 2 4 1 7 8 7 16 0 8 -3 14 -7
14 -32 -5 -73 3 -73 14 0 10 11 13 36 12 28 -2 34 1 32 14 -2 11 -13 16 -36
15 -24 0 -32 4 -32 18 0 10 6 18 13 19 6 1 23 2 36 2 13 1 26 8 28 15 3 9 -11
12 -51 12 l-56 0 0 -77z"/>
<path d="M3900 1735 c-20 -24 -4 -63 30 -70 16 -4 30 -13 30 -21 0 -14 -15
-18 -57 -14 -24 2 -31 -14 -12 -26 18 -11 69 -7 85 7 8 7 14 24 12 38 -3 23
-16 35 -63 55 -17 7 16 24 36 19 13 -4 19 0 19 11 0 21 -63 22 -80 1z"/>
</g>
</svg>
