<?xml version="1.0" encoding="utf-8"?>
<svg xmlns="http://www.w3.org/2000/svg">
<symbol id="arrow-right-long" viewBox="0 0 41 16">
  <g clip-path="url(#clip0_100_275)">
  <path d="M40.7071 8.70705C41.0976 8.31653 41.0976 7.68336 40.7071 7.29284L34.3431 0.928879C33.9526 0.538355 33.3195 0.538355 32.9289 0.928879C32.5384 1.3194 32.5384 1.95257 32.9289 2.34309L38.5858 7.99995L32.9289 13.6569C32.5384 14.0474 32.5384 14.6805 32.9289 15.0711C33.3195 15.4616 33.9526 15.4616 34.3431 15.0711L40.7071 8.70705ZM1.74846e-07 8.99995H40V6.99995H0L1.74846e-07 8.99995Z" fill="white"/>
  </g>
  <defs>
  <clipPath id="clip0_100_275">
  <rect width="41" height="16"/>
  </clipPath>
  </defs>

</symbol>
<symbol id="arrow-right-short" viewBox="0 0 24 24">
  <path d="M7.0001 11.0002H14.5901L11.2901 7.71019C11.1018 7.52188 10.996 7.26649 10.996 7.00019C10.996 6.73388 11.1018 6.47849 11.2901 6.29019C11.4784 6.10188 11.7338 5.99609 12.0001 5.99609C12.2664 5.99609 12.5218 6.10188 12.7101 6.29019L17.7101 11.2902C17.8011 11.3853 17.8725 11.4974 17.9201 11.6202C18.0201 11.8636 18.0201 12.1367 17.9201 12.3802C17.8725 12.5029 17.8011 12.6151 17.7101 12.7102L12.7101 17.7102C12.6171 17.8039 12.5065 17.8783 12.3847 17.9291C12.2628 17.9798 12.1321 18.006 12.0001 18.006C11.8681 18.006 11.7374 17.9798 11.6155 17.9291C11.4937 17.8783 11.3831 17.8039 11.2901 17.7102C11.1964 17.6172 11.122 17.5066 11.0712 17.3848C11.0204 17.2629 10.9943 17.1322 10.9943 17.0002C10.9943 16.8682 11.0204 16.7375 11.0712 16.6156C11.122 16.4937 11.1964 16.3831 11.2901 16.2902L14.5901 13.0002H7.0001C6.73489 13.0002 6.48053 12.8948 6.293 12.7073C6.10546 12.5198 6.0001 12.2654 6.0001 12.0002C6.0001 11.735 6.10546 11.4806 6.293 11.2931C6.48053 11.1055 6.73489 11.0002 7.0001 11.0002Z"/>

</symbol>
<symbol id="check" viewBox="0 0 16 16">
  <path fill-rule="evenodd" clip-rule="evenodd" d="M13.7072 5.20718L7.20718 11.7072H5.79297L2.29297 8.20718L3.70718 6.79297L6.50008 9.58586L12.293 3.79297L13.7072 5.20718Z"/>

</symbol>
<symbol id="facebook" viewBox="0 0 24 24">
  <path d="M16.812 12.9684L17.3561 9.43947L13.9521 9.43947V7.1504C13.9521 6.18472 14.4267 5.24284 15.9514 5.24284H17.5V2.23844C17.5 2.23844 16.0952 2 14.7527 2C11.948 2 10.1165 3.69055 10.1165 6.74981L10.1165 9.43947H7L7 12.9684H10.1165L10.1165 21.5H13.9521L13.9521 12.9684H16.812Z"/>

</symbol>
<symbol id="instagram" viewBox="0 0 24 24">
<path d="M11.9995 14.9783C10.3581 14.9783 9.02152 13.6418 9.02152 12.0003C9.02152 10.3576 10.3581 9.02225 11.9995 9.02225C13.641 9.02225 14.9776 10.3576 14.9776 12.0003C14.9776 13.6418 13.641 14.9783 11.9995 14.9783Z"/>
<path fill-rule="evenodd" clip-rule="evenodd" d="M3 11.775C3 8.11901 3 6.29102 3.93104 5.00955C4.23173 4.59569 4.59569 4.23173 5.00955 3.93104C6.29102 3 8.11901 3 11.775 3H12.2255C15.8815 3 17.7095 3 18.9909 3.93104C19.4048 4.23173 19.7688 4.59569 20.0694 5.00955C21.0005 6.29102 21.0005 8.11901 21.0005 11.775V12.2255C21.0005 15.8815 21.0005 17.7095 20.0694 18.9909C19.7688 19.4048 19.4048 19.7688 18.9909 20.0694C17.7095 21.0005 15.8815 21.0005 12.2255 21.0005H11.775C8.11901 21.0005 6.29102 21.0005 5.00955 20.0694C4.59569 19.7688 4.23173 19.4048 3.93104 18.9909C3 17.7095 3 15.8815 3 12.2255V11.775ZM11.9995 7.23544C9.36816 7.23544 7.23471 9.36889 7.23471 12.0003C7.23471 14.6317 9.36816 16.7651 11.9995 16.7651C14.6309 16.7651 16.7644 14.6317 16.7644 12.0003C16.7644 9.36889 14.6309 7.23544 11.9995 7.23544ZM17.7565 6.87849C17.7565 7.22914 17.4723 7.5134 17.1216 7.5134C16.771 7.5134 16.4867 7.22914 16.4867 6.87849C16.4867 6.52784 16.771 6.24358 17.1216 6.24358C17.4723 6.24358 17.7565 6.52784 17.7565 6.87849Z"/>

</symbol>
<symbol id="pinterest" viewBox="0 0 24 24">
<path d="M18.9852 2.4594C17.3332 0.873472 15.0469 0 12.5477 0C8.72996 0 6.38189 1.56493 5.08438 2.87767C3.48529 4.49547 2.56836 6.64362 2.56836 8.77138C2.56836 11.4429 3.68582 13.4934 5.55712 14.2563C5.68275 14.3078 5.80917 14.3337 5.93311 14.3337C6.32789 14.3337 6.64069 14.0754 6.74906 13.661C6.81225 13.4233 6.9586 12.8369 7.02225 12.5823C7.15847 12.0795 7.04841 11.8377 6.75131 11.4876C6.21009 10.8472 5.95804 10.0899 5.95804 9.10438C5.95804 6.17698 8.13784 3.06578 12.1779 3.06578C15.3835 3.06578 17.3747 4.88772 17.3747 7.82052C17.3747 9.67124 16.9761 11.3852 16.252 12.6468C15.7489 13.5235 14.8641 14.5685 13.5058 14.5685C12.9185 14.5685 12.3909 14.3272 12.058 13.9066C11.7435 13.5089 11.6398 12.9953 11.7663 12.4599C11.9092 11.855 12.104 11.2241 12.2926 10.6141C12.6365 9.5001 12.9617 8.44789 12.9617 7.60841C12.9617 6.17252 12.0789 5.20769 10.7652 5.20769C9.09573 5.20769 7.78777 6.90336 7.78777 9.06805C7.78777 10.1297 8.06991 10.9237 8.19765 11.2286C7.98732 12.1197 6.73734 17.4176 6.50025 18.4166C6.36314 18.9997 5.53729 23.6059 6.90422 23.9731C8.44004 24.3858 9.81287 19.8997 9.95261 19.3928C10.0659 18.9806 10.4621 17.4216 10.7049 16.4634C11.4463 17.1775 12.6401 17.6603 13.8017 17.6603C15.9914 17.6603 17.9608 16.6749 19.3469 14.8858C20.6912 13.1505 21.4316 10.7318 21.4316 8.0757C21.4315 5.99923 20.5398 3.95209 18.9852 2.4594Z"/>

</symbol>
<symbol id="twitter" viewBox="0 0 24 24">
<path d="M21.5 5.79446C20.7823 6.09897 20.0122 6.30548 19.2031 6.39768C20.0292 5.92397 20.6617 5.17259 20.9614 4.28001C20.1864 4.7187 19.331 5.03725 18.4195 5.20993C17.6897 4.46438 16.6515 4 15.4999 4C13.2908 4 11.4995 5.71513 11.4995 7.82929C11.4995 8.12914 11.5349 8.42199 11.6031 8.70204C8.27901 8.54217 5.33141 7.01723 3.35863 4.70003C3.01378 5.26476 2.8176 5.92278 2.8176 6.62519C2.8176 7.95414 3.52435 9.12672 4.59666 9.81275C3.94108 9.79176 3.3245 9.61908 2.78472 9.33205V9.37989C2.78472 11.235 4.16409 12.7833 5.99308 13.1357C5.65798 13.222 5.30462 13.2699 4.93906 13.2699C4.68074 13.2699 4.43094 13.2454 4.18601 13.1987C4.69534 14.7213 6.17221 15.8285 7.92202 15.8589C6.55361 16.8857 4.82817 17.4959 2.9541 17.4959C2.6312 17.4959 2.31315 17.4772 2 17.4434C3.77052 18.532 5.87248 19.1667 8.13161 19.1667C15.4903 19.1667 19.5126 13.3305 19.5126 8.26917L19.4992 7.77331C20.2851 7.23656 20.9651 6.56219 21.5 5.79446Z"/>

</symbol>
<symbol id="youtube" viewBox="0 0 24 24">
<path d="M19.0155 3.50854H4.98449C2.23163 3.50854 0 5.74018 0 8.49304V15.5071C0 18.2599 2.23163 20.4916 4.98449 20.4916H19.0155C21.7684 20.4916 24 18.2599 24 15.5071V8.49304C24 5.74018 21.7684 3.50854 19.0155 3.50854ZM15.6445 12.3413L9.08177 15.4713C8.9069 15.5547 8.7049 15.4272 8.7049 15.2335V8.77781C8.7049 8.58133 8.91221 8.45399 9.08744 8.54281L15.6502 11.8685C15.8453 11.9674 15.8419 12.2472 15.6445 12.3413Z"/>

</symbol></svg>